<svg width="3809" height="201" viewBox="0 0 3809 201" fill="none" xmlns="http://www.w3.org/2000/svg">
<mask id="mask0_119_2424" style="mask-type:alpha" maskUnits="userSpaceOnUse" x="0" y="0" width="1944" height="201">
<rect width="1943.86" height="201" fill="#D9D9D9"/>
</mask>
<g mask="url(#mask0_119_2424)">
<path d="M152.912 -49.4775L151.194 -48.7412L75.4087 -16.2352V50.2494L152.912 83.4917L230.415 50.2494V-16.2352L152.912 -49.4775ZM152.912 -43.5847L223.545 -13.2884V47.3028L152.912 77.5991L82.2787 47.3025V-13.2887L152.912 -43.5847ZM152.912 -34.8148L151.194 -34.0784L92.5019 -8.90429V42.9184L152.912 68.8292L213.322 42.9184V-8.90429L152.912 -34.8148ZM152.912 -28.922L206.452 -5.95745V39.9716L152.912 62.9361L99.3719 39.9716V-5.95745L152.912 -28.922ZM152.912 -20.1521L151.194 -19.4157L109.594 -1.57249V35.5866L152.912 54.1665L196.23 35.5866V-1.57249L152.912 -20.1521ZM152.912 -14.2592L189.36 1.37378V32.6398L152.912 48.2731L116.464 32.6401V1.37406L152.912 -14.2592ZM152.912 -5.48989L151.194 -4.75325L126.687 5.75816V28.2554L152.912 39.5038L179.137 28.2557V5.75845L152.912 -5.48989ZM152.912 0.402933L172.267 8.705V25.3091L152.912 33.6112L133.557 25.3091V8.705L152.912 0.402933ZM152.912 9.17284L151.194 9.91005L143.779 13.0902V20.9239L152.912 24.8413L162.044 20.9239V13.0902L152.912 9.17284Z" fill="#EE6400"/>
<path d="M-0.251176 -48.8223L-1.96867 -48.0859L-77.7544 -15.58V50.9047L-0.251176 84.147L77.252 50.9047V-15.58L-0.251176 -48.8223ZM-0.251176 -42.9294L70.3821 -12.6331V47.9581L-0.251176 78.2544L-70.8844 47.9578V-12.6334L-0.251176 -42.9294ZM-0.251176 -34.1595L-1.96867 -33.4232L-60.6611 -8.24901V43.5737L-0.251176 69.4845L60.1588 43.5737V-8.24901L-0.251176 -34.1595ZM-0.251176 -28.2667L53.2888 -5.30218V40.6269L-0.251176 63.5914L-53.7912 40.6269V-5.30218L-0.251176 -28.2667ZM-0.251176 -19.4968L-1.96867 -18.7604L-43.5694 -0.917221V36.2419L-0.251176 54.8218L43.067 36.2419V-0.917221L-0.251176 -19.4968ZM-0.251176 -13.604L36.1971 2.02905V33.2951L-0.251176 48.9284L-36.6994 33.2954V2.02934L-0.251176 -13.604ZM-0.251176 -4.83462L-1.96867 -4.09798L-26.4765 6.41344V28.9107L-0.251176 40.159L25.9742 28.911V6.41372L-0.251176 -4.83462ZM-0.251176 1.05821L19.1042 9.36028V25.9644L-0.251176 34.2665L-19.6066 25.9644V9.36028L-0.251176 1.05821ZM-0.251176 9.82811L-1.96867 10.5653L-9.38367 13.7455V21.5792L-0.251176 25.4966L8.88131 21.5792V13.7455L-0.251176 9.82811Z" fill="#EE6400"/>
<path d="M310.012 -49.4775L308.249 -48.7412L230.415 -16.2352V50.2494L310.012 83.4917L389.61 50.2494V-16.2352L310.012 -49.4775ZM310.012 -43.5847L382.555 -13.2884V47.3028L310.012 77.5992L237.47 47.3025V-13.2887L310.012 -43.585V-43.5847ZM310.012 -34.8148L308.249 -34.0784L247.97 -8.90429V42.9184L310.012 68.8292L372.055 42.9184V-8.90429L310.012 -34.8148ZM310.012 -28.922L364.999 -5.95745V39.9716L310.012 62.9361L255.025 39.9716V-5.95745L310.012 -28.922ZM310.012 -20.1521L308.249 -19.4157L265.523 -1.57249V35.5867L310.012 54.1665L354.501 35.5867V-1.57249L310.012 -20.1521ZM310.012 -14.2592L347.446 1.37378V32.6398L310.012 48.2731L272.579 32.6401V1.37406L310.012 -14.2592ZM310.012 -5.48989L308.249 -4.75325L283.078 5.75817V28.2554L310.012 39.5038L336.947 28.2557V5.75845L310.012 -5.48961V-5.48989ZM310.012 0.402934L329.891 8.705V25.3091L310.012 33.6112L290.134 25.3091V8.705L310.012 0.402934ZM310.012 9.17285L308.249 9.91005L300.633 13.0902V20.9239L310.012 24.8413L319.392 20.9239V13.0902L310.012 9.17285Z" fill="#EE6400"/>
<path d="M467.114 -49.4775L465.397 -48.7412L389.611 -16.2352V50.2494L467.114 83.4917L544.617 50.2494V-16.2352L467.114 -49.4775ZM467.114 -43.5847L537.747 -13.2884V47.3028L467.114 77.5992L396.481 47.3025V-13.2887L467.114 -43.585V-43.5847ZM467.114 -34.8148L465.397 -34.0784L406.704 -8.90429V42.9184L467.114 68.8292L527.524 42.9184V-8.90429L467.114 -34.8148ZM467.114 -28.922L520.654 -5.95745V39.9716L467.114 62.9361L413.574 39.9716V-5.95745L467.114 -28.922ZM467.114 -20.1521L465.397 -19.4157L423.796 -1.57249V35.5867L467.114 54.1665L510.432 35.5867V-1.57249L467.114 -20.1521ZM467.114 -14.2592L503.562 1.37378V32.6398L467.114 48.2731L430.666 32.6401V1.37406L467.114 -14.2592ZM467.114 -5.48989L465.397 -4.75325L440.889 5.75817V28.2554L467.114 39.5038L493.339 28.2557V5.75845L467.114 -5.48961V-5.48989ZM467.114 0.402934L486.469 8.705V25.3091L467.114 33.6112L447.759 25.3091V8.705L467.114 0.402934ZM467.114 9.17285L465.397 9.91005L457.982 13.0902V20.9239L467.114 24.8413L476.247 20.9239V13.0902L467.114 9.17285Z" fill="#EE6400"/>
<path d="M622.121 -49.4775L620.403 -48.7412L544.618 -16.2352V50.2494L622.121 83.4917L699.624 50.2494V-16.2352L622.121 -49.4775ZM622.121 -43.5847L692.754 -13.2884V47.3028L622.121 77.5992L551.488 47.3025V-13.2887L622.121 -43.585V-43.5847ZM622.121 -34.8148L620.403 -34.0784L561.711 -8.90429V42.9184L622.121 68.8292L682.531 42.9184V-8.90429L622.121 -34.8148ZM622.121 -28.922L675.661 -5.95745V39.9716L622.121 62.9361L568.581 39.9716V-5.95745L622.121 -28.922ZM622.121 -20.1521L620.403 -19.4157L578.803 -1.57249V35.5867L622.121 54.1665L665.439 35.5867V-1.57249L622.121 -20.1521ZM622.121 -14.2592L658.569 1.37378V32.6398L622.121 48.2731L585.673 32.6401V1.37406L622.121 -14.2592ZM622.121 -5.48989L620.403 -4.75325L595.896 5.75817V28.2554L622.121 39.5038L648.346 28.2557V5.75845L622.121 -5.48961V-5.48989ZM622.121 0.402934L641.476 8.705V25.3091L622.121 33.6112L602.766 25.3091V8.705L622.121 0.402934ZM622.121 9.17285L620.403 9.91005L612.988 13.0902V20.9239L622.121 24.8413L631.253 20.9239V13.0902L622.121 9.17285Z" fill="#EE6400"/>
<path d="M777.127 -49.4775L775.409 -48.7412L699.624 -16.2352V50.2494L777.127 83.4917L854.63 50.2494V-16.2352L777.127 -49.4775ZM777.127 -43.5847L847.76 -13.2884V47.3028L777.127 77.5992L706.494 47.3025V-13.2887L777.127 -43.585V-43.5847ZM777.127 -34.8148L775.409 -34.0784L716.717 -8.90429V42.9184L777.127 68.8292L837.537 42.9184V-8.90429L777.127 -34.8148ZM777.127 -28.922L830.667 -5.95745V39.9716L777.127 62.9361L723.587 39.9716V-5.95745L777.127 -28.922ZM777.127 -20.1521L775.409 -19.4157L733.809 -1.57249V35.5867L777.127 54.1665L820.445 35.5867V-1.57249L777.127 -20.1521ZM777.127 -14.2592L813.575 1.37378V32.6398L777.127 48.2731L740.678 32.6401V1.37406L777.127 -14.2592ZM777.127 -5.48989L775.409 -4.75325L750.901 5.75817V28.2554L777.127 39.5038L803.352 28.2557V5.75845L777.127 -5.48961V-5.48989ZM777.127 0.402934L796.482 8.705V25.3091L777.127 33.6112L757.771 25.3091V8.705L777.127 0.402934ZM777.127 9.17285L775.409 9.91005L767.994 13.0902V20.9239L777.127 24.8413L786.259 20.9239V13.0902L777.127 9.17285Z" fill="#EE6400"/>
<path d="M934.228 -49.4775L932.464 -48.7412L854.63 -16.2352V50.2494L934.228 83.4917L1013.83 50.2494V-16.2352L934.228 -49.4775ZM934.228 -43.5847L1006.77 -13.2884V47.3028L934.228 77.5992L861.686 47.3025V-13.2887L934.228 -43.585V-43.5847ZM934.228 -34.8148L932.464 -34.0784L872.186 -8.90429V42.9184L934.228 68.8292L996.271 42.9184V-8.90429L934.228 -34.8148ZM934.228 -28.922L989.215 -5.95745V39.9716L934.228 62.9361L879.241 39.9716V-5.95745L934.228 -28.922ZM934.228 -20.1521L932.464 -19.4157L889.739 -1.57249V35.5867L934.228 54.1665L978.717 35.5867V-1.57249L934.228 -20.1521ZM934.228 -14.2592L971.662 1.37378V32.6398L934.228 48.2731L896.795 32.6401V1.37406L934.228 -14.2592ZM934.228 -5.48989L932.464 -4.75325L907.294 5.75817V28.2554L934.228 39.5038L961.162 28.2557V5.75845L934.228 -5.48961V-5.48989ZM934.228 0.402934L954.107 8.705V25.3091L934.228 33.6112L914.35 25.3091V8.705L934.228 0.402934ZM934.228 9.17285L932.464 9.91005L924.849 13.0902V20.9239L934.228 24.8413L943.608 20.9239V13.0902L934.228 9.17285Z" fill="#EE6400"/>
<path d="M1091.33 -49.4775L1089.61 -48.7412L1013.83 -16.2352V50.2494L1091.33 83.4917L1168.83 50.2494V-16.2352L1091.33 -49.4775ZM1091.33 -43.5847L1161.96 -13.2884V47.3028L1091.33 77.5992L1020.7 47.3025V-13.2887L1091.33 -43.585V-43.5847ZM1091.33 -34.8148L1089.61 -34.0784L1030.92 -8.90429V42.9184L1091.33 68.8292L1151.74 42.9184V-8.90429L1091.33 -34.8148ZM1091.33 -28.922L1144.87 -5.95745V39.9716L1091.33 62.9361L1037.79 39.9716V-5.95745L1091.33 -28.922ZM1091.33 -20.1521L1089.61 -19.4157L1048.01 -1.57249V35.5867L1091.33 54.1665L1134.65 35.5867V-1.57249L1091.33 -20.1521ZM1091.33 -14.2592L1127.78 1.37378V32.6398L1091.33 48.2731L1054.88 32.6401V1.37406L1091.33 -14.2592ZM1091.33 -5.48989L1089.61 -4.75325L1065.1 5.75817V28.2554L1091.33 39.5038L1117.55 28.2557V5.75845L1091.33 -5.48961V-5.48989ZM1091.33 0.402934L1110.68 8.705V25.3091L1091.33 33.6112L1071.97 25.3091V8.705L1091.33 0.402934ZM1091.33 9.17285L1089.61 9.91005L1082.2 13.0902V20.9239L1091.33 24.8413L1100.46 20.9239V13.0902L1091.33 9.17285Z" fill="#EE6400"/>
<path d="M1244.24 -49.4775L1242.57 -48.7412L1168.83 -16.2352V50.2494L1244.24 83.4917L1319.65 50.2494V-16.2352L1244.24 -49.4775ZM1244.24 -43.5847L1312.97 -13.2884V47.3028L1244.24 77.5992L1175.52 47.3025V-13.2887L1244.24 -43.585V-43.5847ZM1244.24 -34.8148L1242.57 -34.0784L1185.46 -8.90429V42.9184L1244.24 68.8292L1303.02 42.9184V-8.90429L1244.24 -34.8148ZM1244.24 -28.922L1296.33 -5.95745V39.9716L1244.24 62.9361L1192.15 39.9716V-5.95745L1244.24 -28.922ZM1244.24 -20.1521L1242.57 -19.4157L1202.09 -1.57249V35.5867L1244.24 54.1665L1286.39 35.5867V-1.57249L1244.24 -20.1521ZM1244.24 -14.2592L1279.7 1.37378V32.6398L1244.24 48.2731L1208.78 32.6401V1.37406L1244.24 -14.2592ZM1244.24 -5.48989L1242.57 -4.75325L1218.72 5.75817V28.2554L1244.24 39.5038L1269.76 28.2557V5.75845L1244.24 -5.48961V-5.48989ZM1244.24 0.402934L1263.07 8.705V25.3091L1244.24 33.6112L1225.41 25.3091V8.705L1244.24 0.402934ZM1244.24 9.17285L1242.57 9.91005L1235.36 13.0902V20.9239L1244.24 24.8413L1253.13 20.9239V13.0902L1244.24 9.17285Z" fill="#EE6400"/>
<path d="M1397.15 -49.4775L1395.44 -48.7412L1319.65 -16.2352V50.2494L1397.15 83.4917L1474.66 50.2494V-16.2352L1397.15 -49.4775ZM1397.15 -43.5847L1467.79 -13.2884V47.3028L1397.15 77.5992L1326.52 47.3025V-13.2887L1397.15 -43.585V-43.5847ZM1397.15 -34.8148L1395.44 -34.0784L1336.74 -8.90429V42.9184L1397.15 68.8292L1457.56 42.9184V-8.90429L1397.15 -34.8148ZM1397.15 -28.922L1450.69 -5.95745V39.9716L1397.15 62.9361L1343.61 39.9716V-5.95745L1397.15 -28.922ZM1397.15 -20.1521L1395.44 -19.4157L1353.83 -1.57249V35.5867L1397.15 54.1665L1440.47 35.5867V-1.57249L1397.15 -20.1521ZM1397.15 -14.2592L1433.6 1.37378V32.6398L1397.15 48.2731L1360.7 32.6401V1.37406L1397.15 -14.2592ZM1397.15 -5.48989L1395.44 -4.75325L1370.93 5.75817V28.2554L1397.15 39.5038L1423.38 28.2557V5.75845L1397.15 -5.48961V-5.48989ZM1397.15 0.402934L1416.51 8.705V25.3091L1397.15 33.6112L1377.8 25.3091V8.705L1397.15 0.402934ZM1397.15 9.17285L1395.44 9.91005L1388.02 13.0902V20.9239L1397.15 24.8413L1406.29 20.9239V13.0902L1397.15 9.17285Z" fill="#EE6400"/>
<path d="M1552.16 -49.4775L1550.44 -48.7412L1474.66 -16.2352V50.2494L1552.16 83.4917L1629.66 50.2494V-16.2352L1552.16 -49.4775ZM1552.16 -43.5847L1622.79 -13.2884V47.3028L1552.16 77.5992L1481.53 47.3025V-13.2887L1552.16 -43.585V-43.5847ZM1552.16 -34.8148L1550.44 -34.0784L1491.75 -8.90429V42.9184L1552.16 68.8292L1612.57 42.9184V-8.90429L1552.16 -34.8148ZM1552.16 -28.922L1605.7 -5.95745V39.9716L1552.16 62.9361L1498.62 39.9716V-5.95745L1552.16 -28.922ZM1552.16 -20.1521L1550.44 -19.4157L1508.84 -1.57249V35.5867L1552.16 54.1665L1595.48 35.5867V-1.57249L1552.16 -20.1521ZM1552.16 -14.2592L1588.61 1.37378V32.6398L1552.16 48.2731L1515.71 32.6401V1.37406L1552.16 -14.2592ZM1552.16 -5.48989L1550.44 -4.75325L1525.93 5.75817V28.2554L1552.16 39.5038L1578.38 28.2557V5.75845L1552.16 -5.48961V-5.48989ZM1552.16 0.402934L1571.51 8.705V25.3091L1552.16 33.6112L1532.8 25.3091V8.705L1552.16 0.402934ZM1552.16 9.17285L1550.44 9.91005L1543.03 13.0902V20.9239L1552.16 24.8413L1561.29 20.9239V13.0902L1552.16 9.17285Z" fill="#EE6400"/>
<path d="M1707.17 -49.4775L1705.45 -48.7412L1629.66 -16.2352V50.2494L1707.17 83.4917L1784.67 50.2494V-16.2352L1707.17 -49.4775ZM1707.17 -43.5847L1777.8 -13.2884V47.3028L1707.17 77.5992L1636.53 47.3025V-13.2887L1707.17 -43.585V-43.5847ZM1707.17 -34.8148L1705.45 -34.0784L1646.76 -8.90429V42.9184L1707.17 68.8292L1767.58 42.9184V-8.90429L1707.17 -34.8148ZM1707.17 -28.922L1760.71 -5.95745V39.9716L1707.17 62.9361L1653.63 39.9716V-5.95745L1707.17 -28.922ZM1707.17 -20.1521L1705.45 -19.4157L1663.85 -1.57249V35.5867L1707.17 54.1665L1750.48 35.5867V-1.57249L1707.17 -20.1521ZM1707.17 -14.2592L1743.61 1.37378V32.6398L1707.17 48.2731L1670.72 32.6401V1.37406L1707.17 -14.2592ZM1707.17 -5.48989L1705.45 -4.75325L1680.94 5.75817V28.2554L1707.17 39.5038L1733.39 28.2557V5.75845L1707.17 -5.48961V-5.48989ZM1707.17 0.402934L1726.52 8.705V25.3091L1707.17 33.6112L1687.81 25.3091V8.705L1707.17 0.402934ZM1707.17 9.17285L1705.45 9.91005L1698.03 13.0902V20.9239L1707.17 24.8413L1716.3 20.9239V13.0902L1707.17 9.17285Z" fill="#EE6400"/>
<path d="M1864.27 -49.4775L1862.5 -48.7412L1784.67 -16.2352V50.2494L1864.27 83.4917L1943.86 50.2494V-16.2352L1864.27 -49.4775ZM1864.27 -43.5847L1936.81 -13.2884V47.3028L1864.27 77.5992L1791.72 47.3025V-13.2887L1864.27 -43.585V-43.5847ZM1864.27 -34.8148L1862.5 -34.0784L1802.22 -8.90429V42.9184L1864.27 68.8292L1926.31 42.9184V-8.90429L1864.27 -34.8148ZM1864.27 -28.922L1919.25 -5.95745V39.9716L1864.27 62.9361L1809.28 39.9716V-5.95745L1864.27 -28.922ZM1864.27 -20.1521L1862.5 -19.4157L1819.78 -1.57249V35.5867L1864.27 54.1665L1908.76 35.5867V-1.57249L1864.27 -20.1521ZM1864.27 -14.2592L1901.7 1.37378V32.6398L1864.27 48.2731L1826.83 32.6401V1.37406L1864.27 -14.2592ZM1864.27 -5.48989L1862.5 -4.75325L1837.33 5.75817V28.2554L1864.27 39.5038L1891.2 28.2557V5.75845L1864.27 -5.48961V-5.48989ZM1864.27 0.402934L1884.14 8.705V25.3091L1864.27 33.6112L1844.39 25.3091V8.705L1864.27 0.402934ZM1864.27 9.17285L1862.5 9.91005L1854.89 13.0902V20.9239L1864.27 24.8413L1873.65 20.9239V13.0902L1864.27 9.17285Z" fill="#EE6400"/>
</g>
<mask id="mask1_119_2424" style="mask-type:alpha" maskUnits="userSpaceOnUse" x="1864" y="0" width="1945" height="201">
<rect x="1864.3" width="1943.86" height="201" fill="#D9D9D9"/>
</mask>
<g mask="url(#mask1_119_2424)">
<path d="M2017.21 -49.4775L2015.5 -48.7412L1939.71 -16.2352V50.2494L2017.21 83.4917L2094.72 50.2494V-16.2352L2017.21 -49.4775ZM2017.21 -43.5847L2087.85 -13.2884V47.3028L2017.21 77.5992L1946.58 47.3025V-13.2887L2017.21 -43.585V-43.5847ZM2017.21 -34.8148L2015.5 -34.0784L1956.8 -8.90429V42.9184L2017.21 68.8292L2077.62 42.9184V-8.90429L2017.21 -34.8148ZM2017.21 -28.922L2070.75 -5.95745V39.9716L2017.21 62.9361L1963.67 39.9716V-5.95745L2017.21 -28.922ZM2017.21 -20.1521L2015.5 -19.4157L1973.9 -1.57249V35.5867L2017.21 54.1665L2060.53 35.5867V-1.57249L2017.21 -20.1521ZM2017.21 -14.2592L2053.66 1.37378V32.6398L2017.21 48.2731L1980.77 32.6401V1.37406L2017.21 -14.2592ZM2017.21 -5.48989L2015.5 -4.75325L1990.99 5.75817V28.2554L2017.21 39.5038L2043.44 28.2557V5.75845L2017.21 -5.48961V-5.48989ZM2017.21 0.402934L2036.57 8.705V25.3091L2017.21 33.6112L1997.86 25.3091V8.705L2017.21 0.402934ZM2017.21 9.17285L2015.5 9.91005L2008.08 13.0902V20.9239L2017.21 24.8413L2026.35 20.9239V13.0902L2017.21 9.17285Z" fill="#EE6400"/>
<path d="M2174.31 -49.4775L2172.55 -48.7412L2094.72 -16.2352V50.2494L2174.31 83.4917L2253.91 50.2494V-16.2352L2174.31 -49.4775ZM2174.31 -43.5847L2246.86 -13.2884V47.3028L2174.31 77.5992L2101.77 47.3025V-13.2887L2174.31 -43.585V-43.5847ZM2174.31 -34.8148L2172.55 -34.0784L2112.27 -8.90429V42.9184L2174.31 68.8292L2236.36 42.9184V-8.90429L2174.31 -34.8148ZM2174.31 -28.922L2229.3 -5.95745V39.9716L2174.31 62.9361L2119.33 39.9716V-5.95745L2174.31 -28.922ZM2174.31 -20.1521L2172.55 -19.4157L2129.83 -1.57249V35.5867L2174.31 54.1665L2218.8 35.5867V-1.57249L2174.31 -20.1521ZM2174.31 -14.2592L2211.75 1.37378V32.6398L2174.31 48.2731L2136.88 32.6401V1.37406L2174.31 -14.2592ZM2174.31 -5.48989L2172.55 -4.75325L2147.38 5.75817V28.2554L2174.31 39.5038L2201.25 28.2557V5.75845L2174.31 -5.48961V-5.48989ZM2174.31 0.402934L2194.19 8.705V25.3091L2174.31 33.6112L2154.44 25.3091V8.705L2174.31 0.402934ZM2174.31 9.17285L2172.55 9.91005L2164.94 13.0902V20.9239L2174.31 24.8413L2183.69 20.9239V13.0902L2174.31 9.17285Z" fill="#EE6400"/>
<path d="M2331.42 -49.4775L2329.7 -48.7412L2253.91 -16.2352V50.2494L2331.42 83.4917L2408.92 50.2494V-16.2352L2331.42 -49.4775ZM2331.42 -43.5847L2402.05 -13.2884V47.3028L2331.42 77.5992L2260.78 47.3025V-13.2887L2331.42 -43.585V-43.5847ZM2331.42 -34.8148L2329.7 -34.0784L2271.01 -8.90429V42.9184L2331.42 68.8292L2391.83 42.9184V-8.90429L2331.42 -34.8148ZM2331.42 -28.922L2384.96 -5.95745V39.9716L2331.42 62.9361L2277.88 39.9716V-5.95745L2331.42 -28.922ZM2331.42 -20.1521L2329.7 -19.4157L2288.1 -1.57249V35.5867L2331.42 54.1665L2374.73 35.5867V-1.57249L2331.42 -20.1521ZM2331.42 -14.2592L2367.86 1.37378V32.6398L2331.42 48.2731L2294.97 32.6401V1.37406L2331.42 -14.2592ZM2331.42 -5.48989L2329.7 -4.75325L2305.19 5.75817V28.2554L2331.42 39.5038L2357.64 28.2557V5.75845L2331.42 -5.48961V-5.48989ZM2331.42 0.402934L2350.77 8.705V25.3091L2331.42 33.6112L2312.06 25.3091V8.705L2331.42 0.402934ZM2331.42 9.17285L2329.7 9.91005L2322.28 13.0902V20.9239L2331.42 24.8413L2340.55 20.9239V13.0902L2331.42 9.17285Z" fill="#EE6400"/>
<path d="M2486.42 -49.4775L2484.7 -48.7412L2408.92 -16.2352V50.2494L2486.42 83.4917L2563.93 50.2494V-16.2352L2486.42 -49.4775ZM2486.42 -43.5847L2557.06 -13.2884V47.3028L2486.42 77.5992L2415.79 47.3025V-13.2887L2486.42 -43.585V-43.5847ZM2486.42 -34.8148L2484.7 -34.0784L2426.01 -8.90429V42.9184L2486.42 68.8292L2546.83 42.9184V-8.90429L2486.42 -34.8148ZM2486.42 -28.922L2539.96 -5.95745V39.9716L2486.42 62.9361L2432.88 39.9716V-5.95745L2486.42 -28.922ZM2486.42 -20.1521L2484.7 -19.4157L2443.1 -1.57249V35.5867L2486.42 54.1665L2529.74 35.5867V-1.57249L2486.42 -20.1521ZM2486.42 -14.2592L2522.87 1.37378V32.6398L2486.42 48.2731L2449.97 32.6401V1.37406L2486.42 -14.2592ZM2486.42 -5.48989L2484.7 -4.75325L2460.2 5.75817V28.2554L2486.42 39.5038L2512.65 28.2557V5.75845L2486.42 -5.48961V-5.48989ZM2486.42 0.402934L2505.78 8.705V25.3091L2486.42 33.6112L2467.07 25.3091V8.705L2486.42 0.402934ZM2486.42 9.17285L2484.7 9.91005L2477.29 13.0902V20.9239L2486.42 24.8413L2495.55 20.9239V13.0902L2486.42 9.17285Z" fill="#EE6400"/>
<path d="M2641.43 -49.4775L2639.71 -48.7412L2563.93 -16.2352V50.2494L2641.43 83.4917L2718.93 50.2494V-16.2352L2641.43 -49.4775ZM2641.43 -43.5847L2712.06 -13.2884V47.3028L2641.43 77.5992L2570.8 47.3025V-13.2887L2641.43 -43.585V-43.5847ZM2641.43 -34.8148L2639.71 -34.0784L2581.02 -8.90429V42.9184L2641.43 68.8292L2701.84 42.9184V-8.90429L2641.43 -34.8148ZM2641.43 -28.922L2694.97 -5.95745V39.9716L2641.43 62.9361L2587.89 39.9716V-5.95745L2641.43 -28.922ZM2641.43 -20.1521L2639.71 -19.4157L2598.11 -1.57249V35.5867L2641.43 54.1665L2684.75 35.5867V-1.57249L2641.43 -20.1521ZM2641.43 -14.2592L2677.88 1.37378V32.6398L2641.43 48.2731L2604.98 32.6401V1.37406L2641.43 -14.2592ZM2641.43 -5.48989L2639.71 -4.75325L2615.2 5.75817V28.2554L2641.43 39.5038L2667.65 28.2557V5.75845L2641.43 -5.48961V-5.48989ZM2641.43 0.402934L2660.78 8.705V25.3091L2641.43 33.6112L2622.07 25.3091V8.705L2641.43 0.402934ZM2641.43 9.17285L2639.71 9.91005L2632.3 13.0902V20.9239L2641.43 24.8413L2650.56 20.9239V13.0902L2641.43 9.17285Z" fill="#EE6400"/>
<path d="M2798.53 -49.4775L2796.77 -48.7412L2718.93 -16.2352V50.2494L2798.53 83.4917L2878.13 50.2494V-16.2352L2798.53 -49.4775ZM2798.53 -43.5847L2871.07 -13.2884V47.3028L2798.53 77.5992L2725.99 47.3025V-13.2887L2798.53 -43.585V-43.5847ZM2798.53 -34.8148L2796.77 -34.0784L2736.49 -8.90429V42.9184L2798.53 68.8292L2860.57 42.9184V-8.90429L2798.53 -34.8148ZM2798.53 -28.922L2853.52 -5.95745V39.9716L2798.53 62.9361L2743.54 39.9716V-5.95745L2798.53 -28.922ZM2798.53 -20.1521L2796.77 -19.4157L2754.04 -1.57249V35.5867L2798.53 54.1665L2843.02 35.5867V-1.57249L2798.53 -20.1521ZM2798.53 -14.2592L2835.96 1.37378V32.6398L2798.53 48.2731L2761.1 32.6401V1.37406L2798.53 -14.2592ZM2798.53 -5.48989L2796.77 -4.75325L2771.6 5.75817V28.2554L2798.53 39.5038L2825.46 28.2557V5.75845L2798.53 -5.48961V-5.48989ZM2798.53 0.402934L2818.41 8.705V25.3091L2798.53 33.6112L2778.65 25.3091V8.705L2798.53 0.402934ZM2798.53 9.17285L2796.77 9.91005L2789.15 13.0902V20.9239L2798.53 24.8413L2807.91 20.9239V13.0902L2798.53 9.17285Z" fill="#EE6400"/>
<path d="M2955.63 -49.4775L2953.91 -48.7412L2878.13 -16.2352V50.2494L2955.63 83.4917L3033.13 50.2494V-16.2352L2955.63 -49.4775ZM2955.63 -43.5847L3026.26 -13.2884V47.3028L2955.63 77.5992L2885 47.3025V-13.2887L2955.63 -43.585V-43.5847ZM2955.63 -34.8148L2953.91 -34.0784L2895.22 -8.90429V42.9184L2955.63 68.8292L3016.04 42.9184V-8.90429L2955.63 -34.8148ZM2955.63 -28.922L3009.17 -5.95745V39.9716L2955.63 62.9361L2902.09 39.9716V-5.95745L2955.63 -28.922ZM2955.63 -20.1521L2953.91 -19.4157L2912.31 -1.57249V35.5867L2955.63 54.1665L2998.95 35.5867V-1.57249L2955.63 -20.1521ZM2955.63 -14.2592L2992.08 1.37378V32.6398L2955.63 48.2731L2919.18 32.6401V1.37406L2955.63 -14.2592ZM2955.63 -5.48989L2953.91 -4.75325L2929.41 5.75817V28.2554L2955.63 39.5038L2981.86 28.2557V5.75845L2955.63 -5.48961V-5.48989ZM2955.63 0.402934L2974.99 8.705V25.3091L2955.63 33.6112L2936.28 25.3091V8.705L2955.63 0.402934ZM2955.63 9.17285L2953.91 9.91005L2946.5 13.0902V20.9239L2955.63 24.8413L2964.76 20.9239V13.0902L2955.63 9.17285Z" fill="#EE6400"/>
<path d="M3108.54 -49.4775L3106.87 -48.7412L3033.13 -16.2352V50.2494L3108.54 83.4917L3183.95 50.2494V-16.2352L3108.54 -49.4775ZM3108.54 -43.5847L3177.27 -13.2884V47.3028L3108.54 77.5992L3039.82 47.3025V-13.2887L3108.54 -43.585V-43.5847ZM3108.54 -34.8148L3106.87 -34.0784L3049.77 -8.90429V42.9184L3108.54 68.8292L3167.32 42.9184V-8.90429L3108.54 -34.8148ZM3108.54 -28.922L3160.64 -5.95745V39.9716L3108.54 62.9361L3056.45 39.9716V-5.95745L3108.54 -28.922ZM3108.54 -20.1521L3106.87 -19.4157L3066.4 -1.57249V35.5867L3108.54 54.1665L3150.69 35.5867V-1.57249L3108.54 -20.1521ZM3108.54 -14.2592L3144.01 1.37378V32.6398L3108.54 48.2731L3073.08 32.6401V1.37406L3108.54 -14.2592ZM3108.54 -5.48989L3106.87 -4.75325L3083.03 5.75817V28.2554L3108.54 39.5038L3134.06 28.2557V5.75845L3108.54 -5.48961V-5.48989ZM3108.54 0.402934L3127.37 8.705V25.3091L3108.54 33.6112L3089.71 25.3091V8.705L3108.54 0.402934ZM3108.54 9.17285L3106.87 9.91005L3099.66 13.0902V20.9239L3108.54 24.8413L3117.43 20.9239V13.0902L3108.54 9.17285Z" fill="#EE6400"/>
<path d="M3261.45 -49.4775L3259.74 -48.7412L3183.95 -16.2352V50.2494L3261.45 83.4917L3338.96 50.2494V-16.2352L3261.45 -49.4775ZM3261.45 -43.5847L3332.09 -13.2884V47.3028L3261.45 77.5992L3190.82 47.3025V-13.2887L3261.45 -43.585V-43.5847ZM3261.45 -34.8148L3259.74 -34.0784L3201.04 -8.90429V42.9184L3261.45 68.8292L3321.86 42.9184V-8.90429L3261.45 -34.8148ZM3261.45 -28.922L3314.99 -5.95745V39.9716L3261.45 62.9361L3207.91 39.9716V-5.95745L3261.45 -28.922ZM3261.45 -20.1521L3259.74 -19.4157L3218.14 -1.57249V35.5867L3261.45 54.1665L3304.77 35.5867V-1.57249L3261.45 -20.1521ZM3261.45 -14.2592L3297.9 1.37378V32.6398L3261.45 48.2731L3225.01 32.6401V1.37406L3261.45 -14.2592ZM3261.45 -5.48989L3259.74 -4.75325L3235.23 5.75817V28.2554L3261.45 39.5038L3287.68 28.2557V5.75845L3261.45 -5.48961V-5.48989ZM3261.45 0.402934L3280.81 8.705V25.3091L3261.45 33.6112L3242.1 25.3091V8.705L3261.45 0.402934ZM3261.45 9.17285L3259.74 9.91005L3252.32 13.0902V20.9239L3261.45 24.8413L3270.59 20.9239V13.0902L3261.45 9.17285Z" fill="#EE6400"/>
<path d="M3416.46 -49.4775L3414.74 -48.7412L3338.96 -16.2352V50.2494L3416.46 83.4917L3493.96 50.2494V-16.2352L3416.46 -49.4775ZM3416.46 -43.5847L3487.09 -13.2884V47.3028L3416.46 77.5992L3345.83 47.3025V-13.2887L3416.46 -43.585V-43.5847ZM3416.46 -34.8148L3414.74 -34.0784L3356.05 -8.90429V42.9184L3416.46 68.8292L3476.87 42.9184V-8.90429L3416.46 -34.8148ZM3416.46 -28.922L3470 -5.95745V39.9716L3416.46 62.9361L3362.92 39.9716V-5.95745L3416.46 -28.922ZM3416.46 -20.1521L3414.74 -19.4157L3373.14 -1.57249V35.5867L3416.46 54.1665L3459.78 35.5867V-1.57249L3416.46 -20.1521ZM3416.46 -14.2592L3452.91 1.37378V32.6398L3416.46 48.2731L3380.01 32.6401V1.37406L3416.46 -14.2592ZM3416.46 -5.48989L3414.74 -4.75325L3390.24 5.75817V28.2554L3416.46 39.5038L3442.69 28.2557V5.75845L3416.46 -5.48961V-5.48989ZM3416.46 0.402934L3435.82 8.705V25.3091L3416.46 33.6112L3397.1 25.3091V8.705L3416.46 0.402934ZM3416.46 9.17285L3414.74 9.91005L3407.33 13.0902V20.9239L3416.46 24.8413L3425.59 20.9239V13.0902L3416.46 9.17285Z" fill="#EE6400"/>
<path d="M3571.47 -49.4775L3569.75 -48.7412L3493.96 -16.2352V50.2494L3571.47 83.4917L3648.97 50.2494V-16.2352L3571.47 -49.4775ZM3571.47 -43.5847L3642.1 -13.2884V47.3028L3571.47 77.5992L3500.83 47.3025V-13.2887L3571.47 -43.585V-43.5847ZM3571.47 -34.8148L3569.75 -34.0784L3511.06 -8.90429V42.9184L3571.47 68.8292L3631.88 42.9184V-8.90429L3571.47 -34.8148ZM3571.47 -28.922L3625.01 -5.95745V39.9716L3571.47 62.9361L3517.93 39.9716V-5.95745L3571.47 -28.922ZM3571.47 -20.1521L3569.75 -19.4157L3528.15 -1.57249V35.5867L3571.47 54.1665L3614.79 35.5867V-1.57249L3571.47 -20.1521ZM3571.47 -14.2592L3607.92 1.37378V32.6398L3571.47 48.2731L3535.02 32.6401V1.37406L3571.47 -14.2592ZM3571.47 -5.48989L3569.75 -4.75325L3545.24 5.75817V28.2554L3571.47 39.5038L3597.69 28.2557V5.75845L3571.47 -5.48961V-5.48989ZM3571.47 0.402934L3590.82 8.705V25.3091L3571.47 33.6112L3552.11 25.3091V8.705L3571.47 0.402934ZM3571.47 9.17285L3569.75 9.91005L3562.33 13.0902V20.9239L3571.47 24.8413L3580.6 20.9239V13.0902L3571.47 9.17285Z" fill="#EE6400"/>
<path d="M3728.57 -49.4775L3726.8 -48.7412L3648.97 -16.2352V50.2494L3728.57 83.4917L3808.17 50.2494V-16.2352L3728.57 -49.4775ZM3728.57 -43.5847L3801.11 -13.2884V47.3028L3728.57 77.5992L3656.03 47.3025V-13.2887L3728.57 -43.585V-43.5847ZM3728.57 -34.8148L3726.8 -34.0784L3666.53 -8.90429V42.9184L3728.57 68.8292L3790.61 42.9184V-8.90429L3728.57 -34.8148ZM3728.57 -28.922L3783.56 -5.95745V39.9716L3728.57 62.9361L3673.58 39.9716V-5.95745L3728.57 -28.922ZM3728.57 -20.1521L3726.8 -19.4157L3684.08 -1.57249V35.5867L3728.57 54.1665L3773.06 35.5867V-1.57249L3728.57 -20.1521ZM3728.57 -14.2592L3766 1.37378V32.6398L3728.57 48.2731L3691.13 32.6401V1.37406L3728.57 -14.2592ZM3728.57 -5.48989L3726.8 -4.75325L3701.63 5.75817V28.2554L3728.57 39.5038L3755.5 28.2557V5.75845L3728.57 -5.48961V-5.48989ZM3728.57 0.402934L3748.45 8.705V25.3091L3728.57 33.6112L3708.69 25.3091V8.705L3728.57 0.402934ZM3728.57 9.17285L3726.8 9.91005L3719.19 13.0902V20.9239L3728.57 24.8413L3737.95 20.9239V13.0902L3728.57 9.17285Z" fill="#EE6400"/>
</g>
</svg>
