<svg width="154" height="46" viewBox="0 0 154 46" fill="none" xmlns="http://www.w3.org/2000/svg">
<path d="M130.993 24.4532L135.376 15.5799L134.345 15.0729L138.212 8.48132L142.596 10.763C144.143 11.3546 147.598 11.7771 149.042 8.73484C149.988 9.24189 151.621 10.5095 152.652 12.5377C154.715 17.8616 152.755 25.5179 142.854 28.763C143.284 28.425 144.091 26.3799 143.885 20.9039C143.799 19.7208 143.37 17.6081 142.596 17.101C142.111 16.7832 141.049 16.6954 140.017 18.1151L138.728 17.3546C135.892 24.1151 129.394 38.2954 126.094 40.932L126.867 41.6926L124.546 44.4813L123.773 43.7208L123.257 44.2278C122.312 43.8898 120.215 42.8588 119.389 41.4391L119.905 40.932L119.647 40.6785L121.71 37.8898L122.484 38.3968C123.945 37.0447 127.692 32.363 130.993 24.4532Z" stroke="#EE6400" stroke-width="0.8"/>
<path d="M23.7861 24.4532L19.4027 15.5799L20.4341 15.0729L16.5663 8.48132L12.1829 10.763C10.6358 11.3546 7.18056 11.7771 5.7366 8.73484C4.79115 9.24189 3.15809 10.5095 2.12669 12.5377C0.0638847 17.8616 2.02355 25.5179 11.925 28.763C11.4953 28.425 10.6873 26.3799 10.8936 20.9039C10.9796 19.7208 11.4093 17.6081 12.1829 17.101C12.6677 16.7832 13.73 16.6954 14.7614 18.1151L16.0506 17.3546C18.887 24.1151 25.3848 38.2954 28.6853 40.932L27.9117 41.6926L30.2324 44.4813L31.0059 43.7208L31.5216 44.2278C32.4671 43.8898 34.5643 42.8588 35.3894 41.4391L34.8737 40.932L35.1316 40.6785L33.0687 37.8898L32.2952 38.3968C30.834 37.0447 27.0866 32.363 23.7861 24.4532Z" stroke="#EE6400" stroke-width="0.8"/>
<path d="M41.7054 17.0748C41.7054 21.3708 39.4014 23.5188 34.7934 23.5188H25.9734V1.1628H34.6134C36.8934 1.1628 38.5854 1.6308 39.6894 2.5668C40.7934 3.4788 41.3454 4.9428 41.3454 6.9588C41.3454 8.9748 40.5174 10.5108 38.8614 11.5668V11.7828C40.7574 12.5268 41.7054 14.2908 41.7054 17.0748ZM33.3534 19.5228C34.0734 19.5228 34.5534 19.3668 34.7934 19.0548C35.0574 18.7188 35.1894 18.0468 35.1894 17.0388C35.1894 16.0068 35.0574 15.2868 34.7934 14.8788C34.5294 14.4468 34.0494 14.2308 33.3534 14.2308H32.2014V19.5228H33.3534ZM33.3894 10.7388C33.9414 10.7388 34.3254 10.5708 34.5414 10.2348C34.7574 9.8988 34.8654 9.3108 34.8654 8.4708C34.8654 7.6068 34.7454 7.0068 34.5054 6.6708C34.2894 6.3108 33.9054 6.1308 33.3534 6.1308H32.2014V10.7388H33.3894ZM59.0976 8.2548C59.0976 9.5988 58.8936 10.7148 58.4856 11.6028C58.0776 12.4908 57.4416 13.2948 56.5776 14.0148L59.5656 23.5188H52.9056L50.6736 15.4548H49.8456V23.5188H43.7976V1.1628H52.1496C54.5496 1.1628 56.3016 1.7268 57.4056 2.8548C58.5336 3.9828 59.0976 5.7828 59.0976 8.2548ZM50.7816 11.6748C51.4056 11.6748 51.8496 11.4948 52.1136 11.1348C52.3776 10.7748 52.5096 10.1268 52.5096 9.1908C52.5096 8.2308 52.3776 7.5708 52.1136 7.2108C51.8496 6.8268 51.4176 6.6348 50.8176 6.6348H49.8456V11.6748H50.7816ZM77.6427 23.5188H71.6307L70.9467 19.9908H66.6987L66.0147 23.5188H60.2907L64.3947 1.1628H73.5387L77.6427 23.5188ZM70.2627 15.7788L69.0027 7.7868H68.7507L67.4907 15.7788H70.2627ZM95.6804 1.1628L91.9004 23.5188H82.3964L78.3644 1.1628H85.1684L87.1124 15.8148H87.7244L89.2004 1.1628H95.6804ZM103.992 16.1748C103.992 16.9188 104.148 17.4708 104.46 17.8308C104.772 18.1908 105.276 18.3708 105.972 18.3708C106.692 18.3708 107.184 18.2028 107.448 17.8668C107.736 17.5068 107.88 16.9308 107.88 16.1388V1.1628H114.072V16.4988C114.072 19.0668 113.364 20.9388 111.948 22.1148C110.556 23.2908 108.492 23.8788 105.756 23.8788C103.044 23.8788 101.016 23.3028 99.6722 22.1508C98.3522 20.9748 97.6922 19.1148 97.6922 16.5708V1.1628H103.992V16.1748ZM116.231 7.8948C116.231 5.7588 116.855 4.0428 118.103 2.7468C119.351 1.4508 121.055 0.802797 123.215 0.802797C125.399 0.802797 127.631 1.0188 129.911 1.4508L129.191 7.2108C126.815 6.6588 125.183 6.3828 124.295 6.3828C123.167 6.3828 122.603 6.8388 122.603 7.7508C122.603 8.1108 122.867 8.4588 123.395 8.7948C123.947 9.1308 124.607 9.4908 125.375 9.8748C126.143 10.2348 126.911 10.6788 127.679 11.2068C128.447 11.7108 129.095 12.4428 129.623 13.4028C130.175 14.3628 130.451 15.4668 130.451 16.7148C130.451 18.9948 129.839 20.7588 128.615 22.0068C127.391 23.2548 125.651 23.8788 123.395 23.8788C121.163 23.8788 118.979 23.5308 116.843 22.8348L117.239 17.4708C119.807 18.2148 121.595 18.5868 122.603 18.5868C123.611 18.5868 124.115 18.1428 124.115 17.2548C124.115 16.7988 123.839 16.3788 123.287 15.9948C122.759 15.6108 122.111 15.2268 121.343 14.8428C120.575 14.4588 119.795 14.0148 119.003 13.5108C118.235 13.0068 117.575 12.2748 117.023 11.3148C116.495 10.3548 116.231 9.2148 116.231 7.8948Z" fill="#040404"/>
<path d="M33.7722 36.4813L33.9441 37.911C33.9441 38.2287 33.8321 38.3876 33.6082 38.3876C33.3894 38.3876 33.28 38.2313 33.28 37.9188C33.28 37.773 33.3113 37.5568 33.3738 37.2704C33.4363 36.9839 33.4675 36.7313 33.4675 36.5126C33.4675 36.2938 33.405 36.1844 33.28 36.1844C33.1811 36.1844 33.1082 36.2626 33.0613 36.4188C33.0144 36.5699 32.991 36.7548 32.991 36.9735C32.991 37.1975 33.0274 37.6219 33.1003 38.2469C33.1785 38.8772 33.2175 39.3459 33.2175 39.6532C33.2175 39.9657 33.1003 40.1219 32.866 40.1219C32.6316 40.1219 32.5144 39.9709 32.5144 39.6688C32.5144 39.3719 32.5561 38.9579 32.6394 38.4266C32.7227 37.9006 32.7644 37.5048 32.7644 37.2391L32.7722 26.7079C32.7722 26.385 32.6707 26.1246 32.4675 25.9266L32.6238 25.7626C32.8425 25.9709 33.1029 26.0751 33.405 26.0751H40.0144C40.0925 26.0751 40.2306 26.0725 40.4285 26.0673C40.6264 26.0621 40.8608 26.0647 41.1316 26.0751C41.4024 26.0855 41.6785 26.0959 41.9597 26.1063C42.2462 26.1115 42.53 26.1376 42.8113 26.1844C43.0977 26.2313 43.3712 26.2886 43.6316 26.3563C43.892 26.4188 44.1342 26.5126 44.3582 26.6376C44.5821 26.7626 44.7774 26.9032 44.9441 27.0594C45.3035 27.4032 45.4832 27.8407 45.4832 28.3719C45.4832 28.9032 45.3608 29.3667 45.116 29.7626C44.8712 30.1532 44.5274 30.3667 44.0847 30.4032L44.1003 30.5594C44.4076 30.5334 44.6941 30.6063 44.9597 30.7782C45.2253 30.9449 45.4415 31.1688 45.6082 31.4501C45.9571 32.0438 46.1316 32.5959 46.1316 33.1063C46.1316 33.6167 46.0561 34.0464 45.905 34.3954C45.7592 34.7443 45.5535 35.0334 45.2878 35.2626C45.0222 35.4917 44.7279 35.6897 44.405 35.8563C44.0821 36.023 43.7227 36.148 43.3269 36.2313C42.5717 36.398 41.8217 36.4813 41.0769 36.4813H33.7722ZM36.4832 32.4266C36.6863 32.6298 36.7878 32.8928 36.7878 33.2157C36.7878 33.5386 36.6863 33.8016 36.4832 34.0048L36.6394 34.1688C36.8477 33.9605 37.1082 33.8563 37.4207 33.8563H40.491C40.5274 33.8563 40.6056 33.8589 40.7253 33.8641C40.8451 33.8641 40.9285 33.8641 40.9753 33.8641C41.0274 33.8589 41.1029 33.8511 41.2019 33.8407C41.3061 33.8303 41.3816 33.8121 41.4285 33.786C41.4806 33.7548 41.5352 33.7157 41.5925 33.6688C41.7019 33.5907 41.7566 33.4397 41.7566 33.2157C41.7566 32.9917 41.6654 32.8251 41.4832 32.7157C41.3009 32.6063 41.0925 32.5516 40.8582 32.5516L37.4207 32.5751C37.1029 32.5751 36.8425 32.4735 36.6394 32.2704L36.4832 32.4266ZM38.0222 29.8876L39.8503 29.9657C40.4753 29.9657 40.8738 29.8537 41.0457 29.6298C41.129 29.5204 41.1707 29.3954 41.1707 29.2548C41.1707 29.1089 41.1134 28.9943 40.9988 28.911C40.8061 28.7756 40.5535 28.7079 40.241 28.7079L37.4207 28.7157C37.1342 28.7157 36.8868 28.6167 36.6785 28.4188L36.53 28.5751C36.7332 28.7782 36.8347 29.0256 36.8347 29.3173C36.8347 29.6089 36.7332 29.8615 36.53 30.0751L36.6785 30.2235C36.9076 29.9996 37.3556 29.8876 38.0222 29.8876ZM34.0535 41.7235C34.1108 41.9371 34.1524 42.1167 34.1785 42.2626C34.2045 42.4136 34.2175 42.5855 34.2175 42.7782C34.2175 42.9761 34.129 43.0751 33.9519 43.0751C33.7748 43.0751 33.6863 42.9475 33.6863 42.6923C33.6863 42.4318 33.7253 42.1506 33.8035 41.8485C33.8868 41.5464 33.9363 41.3615 33.9519 41.2938C33.9675 41.3719 34.0014 41.5152 34.0535 41.7235ZM60.3894 27.6532L60.4597 31.6454C60.4597 33.036 60.2878 34.0542 59.9441 34.7001C59.6212 35.3147 59.1602 35.7756 58.5613 36.0829C57.879 36.4371 56.9727 36.6662 55.8425 36.7704V38.2313L55.9207 39.036C55.9207 39.2131 55.8712 39.3016 55.7722 39.3016C55.6733 39.3016 55.6238 39.1298 55.6238 38.786L55.6707 37.5126C55.6707 36.9501 55.4962 36.6688 55.1472 36.6688C54.8764 36.6688 54.741 36.8902 54.741 37.3329C54.741 37.3329 54.754 37.5594 54.78 38.0126C54.78 38.1688 54.8113 38.3954 54.8738 38.6923C54.9415 38.9943 54.9753 39.2079 54.9753 39.3329C54.9753 39.4579 54.9493 39.5621 54.8972 39.6454C54.8451 39.7287 54.7696 39.7704 54.6707 39.7704C54.5717 39.7704 54.4962 39.7261 54.4441 39.6376C54.3972 39.5542 54.3738 39.4527 54.3738 39.3329C54.3738 39.2131 54.4076 39.0152 54.4753 38.7391C54.5483 38.4683 54.5847 38.2938 54.5847 38.2157C54.5847 38.1376 54.5847 38.0568 54.5847 37.9735C54.5847 37.8954 54.5821 37.8147 54.5769 37.7313C54.5717 37.648 54.5587 37.5438 54.5378 37.4188C54.4962 37.1584 54.3712 37.0282 54.1628 37.0282C53.7774 37.0282 53.5847 37.4084 53.5847 38.1688V38.5282C53.5847 38.7209 53.6316 39.0022 53.7253 39.3719C53.8191 39.7417 53.866 40.0074 53.866 40.1688C53.866 40.5699 53.7358 40.7704 53.4753 40.7704C53.3451 40.7704 53.241 40.7157 53.1628 40.6063C53.0899 40.4969 53.0535 40.3563 53.0535 40.1844C53.0535 40.0126 53.0951 39.7209 53.1785 39.3094C53.267 38.898 53.3113 38.5855 53.3113 38.3719V36.8173C51.8321 36.7496 50.7227 36.5334 49.9832 36.1688C48.6915 35.5438 48.0274 34.3563 47.991 32.6063C47.9806 32.1219 47.9753 31.4006 47.9753 30.4423L47.991 26.8329C47.991 26.5256 47.8894 26.2678 47.6863 26.0594L47.8503 25.9032C48.0431 26.1011 48.3009 26.2001 48.6238 26.2001H51.3894C51.7071 26.2001 51.9649 26.1011 52.1628 25.9032L52.3269 26.0594C52.129 26.2626 52.03 26.5204 52.03 26.8329L52.0457 30.8485C52.0457 31.6246 52.0665 32.1167 52.1082 32.3251C52.1498 32.5334 52.1941 32.7261 52.241 32.9032C52.2931 33.0751 52.3529 33.2131 52.4207 33.3173C52.4936 33.4214 52.5847 33.5334 52.6941 33.6532C52.8035 33.7678 52.9285 33.8563 53.0691 33.9188C53.3972 34.0647 53.7175 34.1376 54.03 34.1376C54.3477 34.1376 54.5925 34.1246 54.7644 34.0985C54.9415 34.0673 55.0951 34.0204 55.2253 33.9579C55.3608 33.8902 55.4806 33.8199 55.5847 33.7469C55.6941 33.6688 55.7852 33.5725 55.8582 33.4579C55.9363 33.3381 56.004 33.2261 56.0613 33.1219C56.1186 33.0126 56.1628 32.8772 56.1941 32.7157C56.2306 32.5542 56.2592 32.4136 56.28 32.2938C56.3009 32.1688 56.3165 32.0126 56.3269 31.8251C56.3425 31.5386 56.3503 31.2131 56.3503 30.8485L56.366 26.8329C56.366 26.5152 56.2696 26.2574 56.0769 26.0594L56.2253 25.9032C56.4233 26.1011 56.6837 26.2001 57.0066 26.2001H59.7722C60.1003 26.2001 60.3608 26.1011 60.5535 25.9032L60.7097 26.0594C60.4962 26.2782 60.3894 26.8094 60.3894 27.6532ZM56.03 40.8173C56.03 41.0621 55.9441 41.1844 55.7722 41.1844C55.6003 41.1844 55.5144 41.0568 55.5144 40.8016C55.5144 40.5516 55.5509 40.3381 55.6238 40.161C55.7019 39.9891 55.7488 39.9032 55.7644 39.9032C55.78 39.9032 55.8087 39.9501 55.8503 40.0438C55.9701 40.3147 56.03 40.5725 56.03 40.8173ZM75.4207 39.0438L75.5925 37.4266C75.5925 36.7704 75.3243 36.2704 74.7878 35.9266C74.2566 35.5777 73.6967 35.424 73.1082 35.4657C72.5196 35.5022 72.1082 35.7001 71.8738 36.0594C71.754 36.2313 71.6941 36.4344 71.6941 36.6688L71.655 38.7626C71.655 39.049 71.6993 39.4735 71.7878 40.036C71.8764 40.6037 71.9207 41.0308 71.9207 41.3173C71.9207 41.8225 71.7774 42.0751 71.491 42.0751C71.2045 42.0751 71.0613 41.8303 71.0613 41.3407C71.0613 41.0178 71.1082 40.5542 71.2019 39.9501C71.2957 39.3459 71.3477 38.8876 71.3582 38.5751C71.3738 38.2626 71.3816 37.5959 71.3816 36.5751C71.3816 36.3042 71.2983 35.9917 71.1316 35.6376C70.9649 35.2834 70.7019 34.7964 70.3425 34.1766C69.9832 33.5568 69.6889 33.01 69.4597 32.536L69.2253 32.4032C69.1003 32.6324 68.879 32.7469 68.5613 32.7469L67.905 32.7704C67.4571 32.7704 67.1212 32.661 66.8972 32.4423L66.7332 32.5985C66.7488 32.7912 66.7566 33.2027 66.7566 33.8329L66.7488 35.7469C66.7488 36.3199 66.7592 36.7417 66.78 37.0126L66.9285 38.161C66.9285 38.3746 66.8556 38.4813 66.7097 38.4813C66.5639 38.4813 66.491 38.3824 66.491 38.1844L66.616 37.2157C66.616 36.9813 66.5457 36.7938 66.405 36.6532C66.2696 36.5178 66.0899 36.4501 65.866 36.4501C65.6472 36.4501 65.4519 36.5464 65.28 36.7391C65.1134 36.9371 65.03 37.1923 65.03 37.5048C65.03 37.8173 65.0873 38.2391 65.2019 38.7704C65.3165 39.3068 65.3738 39.6923 65.3738 39.9266C65.3738 40.4162 65.1993 40.661 64.8503 40.661C64.5014 40.661 64.3269 40.4214 64.3269 39.9423C64.3269 39.7183 64.3764 39.3277 64.4753 38.7704C64.5795 38.2131 64.6316 37.7704 64.6316 37.4423C64.6316 37.1141 64.5561 36.8433 64.405 36.6298C64.254 36.4214 64.0821 36.3173 63.8894 36.3173C63.6967 36.3173 63.5326 36.3824 63.3972 36.5126C63.2618 36.648 63.1941 36.8147 63.1941 37.0126L63.405 38.8641C63.405 39.1818 63.2878 39.3407 63.0535 39.3407C62.8191 39.3407 62.7019 39.1792 62.7019 38.8563C62.7019 38.6688 62.7514 38.3407 62.8503 37.8719C62.9493 37.4084 62.9962 37.0464 62.991 36.786C62.9858 36.5256 62.9832 33.1558 62.9832 26.6766C62.9832 26.3537 62.8842 26.0959 62.6863 25.9032L62.8425 25.7469C63.0457 25.9449 63.3035 26.0438 63.616 26.0438H70.616C71.7097 26.0438 72.4441 26.0777 72.8191 26.1454C73.1993 26.2079 73.53 26.2756 73.8113 26.3485C74.0977 26.4214 74.3373 26.5126 74.53 26.6219C74.7279 26.7261 74.9259 26.8589 75.1238 27.0204C75.3269 27.1766 75.4884 27.3563 75.6082 27.5594C75.8842 28.023 76.0222 28.5152 76.0222 29.036C76.0222 29.5568 75.9806 29.9839 75.8972 30.3173C75.8191 30.6454 75.6863 30.9553 75.4988 31.2469C75.0925 31.8772 74.379 32.1923 73.3582 32.1923L73.2957 32.3719C73.6238 32.5022 73.8425 32.6818 73.9519 32.911C74.4102 33.911 74.7488 34.5464 74.9675 34.8173C75.1863 35.0829 75.3894 35.2964 75.5769 35.4579C75.7644 35.6193 76.0326 35.7834 76.3816 35.9501C76.7306 36.1167 76.9415 36.2261 77.0144 36.2782C77.0873 36.3251 77.1238 36.3641 77.1238 36.3954C77.1238 36.9162 77.1941 37.5855 77.3347 38.4032C77.4753 39.2209 77.5457 39.7469 77.5457 39.9813C77.5457 40.2157 77.5352 40.385 77.5144 40.4891C77.4988 40.5933 77.4597 40.6949 77.3972 40.7938C77.3347 40.898 77.2436 40.9501 77.1238 40.9501C77.004 40.9501 76.9128 40.8641 76.8503 40.6923C76.7931 40.5204 76.7644 40.3094 76.7644 40.0594C76.7644 39.8094 76.7983 39.3615 76.866 38.7157C76.9337 38.0751 76.9675 37.5907 76.9675 37.2626C76.9675 36.6115 76.7566 36.286 76.3347 36.286C76.1264 36.286 75.9701 36.3225 75.866 36.3954C75.767 36.4683 75.7175 36.6167 75.7175 36.8407C75.7175 37.0699 75.7644 37.4318 75.8582 37.9266C75.9519 38.4214 75.9988 38.7938 75.9988 39.0438C75.9988 39.299 75.9024 39.4266 75.7097 39.4266C75.517 39.4266 75.4207 39.299 75.4207 39.0438ZM70.2175 28.6376L68.3738 28.6923C67.6186 28.6923 67.1264 28.5803 66.8972 28.3563L66.7332 28.5048C66.9415 28.7079 67.0457 28.9683 67.0457 29.286V29.8094C67.0457 30.1219 66.9415 30.3824 66.7332 30.5907L66.8972 30.7469C67.1212 30.5178 67.5847 30.4032 68.2878 30.4032L70.2644 30.4735C70.7904 30.4735 71.1967 30.4058 71.4832 30.2704C71.7748 30.1298 71.9207 29.8746 71.9207 29.5048C71.9207 29.2704 71.8399 29.0881 71.6785 28.9579C71.517 28.8225 71.3217 28.7365 71.0925 28.7001C70.8634 28.6584 70.5717 28.6376 70.2175 28.6376ZM88.2957 34.0594C88.0977 33.9032 87.9988 33.7209 87.9988 33.5126V33.4501C87.9988 33.2417 88.0925 33.0438 88.28 32.8563L88.1707 32.7548C87.9832 32.9423 87.7878 33.036 87.5847 33.036H86.8269C86.5092 33.036 86.2488 33.1376 86.0457 33.3407L85.8816 33.1766C86.0899 32.9683 86.1941 32.7105 86.1941 32.4032V31.2469C86.1941 30.9344 86.0899 30.674 85.8816 30.4657L86.0457 30.3094C86.2436 30.5074 86.504 30.6063 86.8269 30.6063H91.6238C91.9467 30.6063 92.2071 30.5074 92.405 30.3094L92.5535 30.4657C92.3556 30.6636 92.2566 30.924 92.2566 31.2469V34.5204C92.2566 34.6818 92.2774 34.8121 92.3191 34.911C92.366 35.0048 92.4571 35.0881 92.5925 35.161L92.4675 35.3876C92.3738 35.3407 92.267 35.3173 92.1472 35.3173C92.0326 35.3173 91.8998 35.3667 91.7488 35.4657C90.5404 36.273 88.8217 36.7261 86.5925 36.8251V37.5751L86.7175 38.4423C86.7175 38.5673 86.6915 38.6636 86.6394 38.7313C86.5873 38.799 86.5274 38.8329 86.4597 38.8329C86.3972 38.8329 86.3399 38.8016 86.2878 38.7391C86.2358 38.6766 86.2097 38.6141 86.2097 38.5516C86.2097 38.4943 86.2201 38.4136 86.241 38.3094C86.3035 37.9865 86.3347 37.6584 86.3347 37.3251C86.3347 36.9917 86.3113 36.8251 86.2644 36.8251C85.2436 36.8251 84.1707 36.7548 83.0457 36.6141C82.9988 36.5985 82.9753 36.8772 82.9753 37.4501C82.9753 38.023 83.0222 38.6141 83.116 39.2235C83.2149 39.8329 83.2644 40.2574 83.2644 40.4969C83.2644 40.9813 83.116 41.2235 82.8191 41.2235C82.6785 41.2235 82.5561 41.1688 82.4519 41.0594C82.3529 40.9501 82.3035 40.773 82.3035 40.5282C82.3035 40.2886 82.3894 39.8563 82.5613 39.2313C82.7332 38.6115 82.8191 38.1272 82.8191 37.7782V36.5594C79.8451 35.8928 78.3582 34.0985 78.3582 31.1766C78.3582 28.9527 79.2748 27.398 81.1082 26.5126C82.1654 25.9969 83.4571 25.7391 84.9832 25.7391C87.4467 25.7391 89.3373 26.2209 90.655 27.1844C91.3686 27.7053 91.8243 28.299 92.0222 28.9657C92.116 29.2782 92.2826 29.5178 92.5222 29.6844L92.405 29.8407C92.1915 29.6844 91.9102 29.6063 91.5613 29.6063L88.2644 29.7157C87.9363 29.7365 87.7149 29.8615 87.6003 30.0907L87.3425 29.9657C87.3842 29.8772 87.405 29.7756 87.405 29.661C87.405 29.5464 87.3165 29.3719 87.1394 29.1376C86.9623 28.898 86.7175 28.7183 86.405 28.5985C86.0977 28.4735 85.6889 28.411 85.1785 28.411C84.6733 28.411 84.2618 28.4839 83.9441 28.6298C83.6264 28.7756 83.3738 28.9761 83.1863 29.2313C82.8217 29.7469 82.6394 30.4292 82.6394 31.2782C82.6394 32.1272 82.9102 32.8277 83.4519 33.3798C83.9988 33.9266 84.7123 34.2001 85.5925 34.2001C86.4727 34.2001 87.142 34.1428 87.6003 34.0282C87.6837 34.0074 87.7644 33.9969 87.8425 33.9969C87.9207 33.9969 88.0404 34.0594 88.2019 34.1844L88.2957 34.0594ZM98.9441 35.1844L98.8191 34.2157V34.1298C98.9285 33.9371 99.0769 33.8407 99.2644 33.8407L105.639 33.8485C105.957 33.8485 106.215 33.7469 106.413 33.5438L106.569 33.7001C106.277 34.2365 106.132 35.2079 106.132 36.6141C106.132 36.8329 106.178 37.2548 106.272 37.8798C106.371 38.51 106.421 38.9266 106.421 39.1298C106.421 39.3381 106.387 39.4917 106.319 39.5907C106.251 39.6897 106.171 39.7391 106.077 39.7391C105.983 39.7391 105.9 39.6844 105.827 39.5751C105.759 39.4657 105.725 39.3147 105.725 39.1219L105.85 37.3954C105.85 36.9371 105.77 36.5933 105.608 36.3641C105.447 36.1298 105.228 36.0126 104.952 36.0126C104.332 36.0126 104.022 36.4787 104.022 37.411C104.022 37.7704 104.074 38.2912 104.178 38.9735C104.288 39.6558 104.343 40.0829 104.343 40.2548C104.343 40.4266 104.303 40.5568 104.225 40.6454C104.147 40.7391 104.056 40.786 103.952 40.786C103.853 40.786 103.764 40.7417 103.686 40.6532C103.613 40.5699 103.577 40.4553 103.577 40.3094L103.718 37.8173C103.718 36.9058 103.522 36.4501 103.132 36.4501L102.538 36.4657H96.3972C95.9337 36.4657 95.5925 36.5542 95.3738 36.7313C95.1238 36.9397 94.9988 37.5282 94.9988 38.4969C94.9988 38.8876 95.0587 39.4631 95.1785 40.2235C95.2983 40.9891 95.3582 41.5647 95.3582 41.9501C95.3582 42.5074 95.1602 42.786 94.7644 42.786C94.3373 42.786 94.1238 42.4996 94.1238 41.9266C94.1238 41.536 94.2097 40.9579 94.3816 40.1923C94.5535 39.4266 94.6394 38.8459 94.6394 38.4501L94.6003 35.8329V26.7235C94.6003 26.4006 94.5014 26.1428 94.3035 25.9501L94.4597 25.786C94.6733 25.9891 94.9337 26.0907 95.241 26.0907H105.272C105.59 26.0907 105.85 25.9891 106.053 25.786L106.21 25.9501C105.981 26.1792 105.866 26.6272 105.866 27.2938V27.6454C105.866 28.2339 105.981 28.6376 106.21 28.8563L106.053 29.0048C105.793 28.7391 105.181 28.6063 104.218 28.6063L100.335 28.786C99.3764 28.786 98.767 28.6532 98.5066 28.3876L98.3425 28.5438C98.5457 28.7417 98.6472 29.0048 98.6472 29.3329C98.6472 29.6558 98.5457 29.9162 98.3425 30.1141L98.5066 30.2626C98.7566 30.0022 99.2826 29.8719 100.085 29.8719L103.358 30.0516C104.165 30.0516 104.699 29.9214 104.96 29.661L105.124 29.8173C104.895 30.0464 104.78 30.5256 104.78 31.2548V31.5594C104.78 32.1167 104.895 32.51 105.124 32.7391L104.96 32.9032C104.71 32.6428 104.181 32.5126 103.374 32.5126L100.1 32.6844C99.2983 32.6844 98.767 32.5542 98.5066 32.2938L98.3503 32.4501C98.5691 32.674 98.6785 33.0647 98.6785 33.6219L98.6628 34.2313L98.53 35.1688C98.53 35.3563 98.5977 35.4501 98.7332 35.4501C98.8738 35.4501 98.9441 35.3615 98.9441 35.1844ZM121.124 39.0438L121.296 37.4266C121.296 36.7704 121.027 36.2704 120.491 35.9266C119.96 35.5777 119.4 35.424 118.811 35.4657C118.223 35.5022 117.811 35.7001 117.577 36.0594C117.457 36.2313 117.397 36.4344 117.397 36.6688L117.358 38.7626C117.358 39.049 117.402 39.4735 117.491 40.036C117.58 40.6037 117.624 41.0308 117.624 41.3173C117.624 41.8225 117.481 42.0751 117.194 42.0751C116.908 42.0751 116.764 41.8303 116.764 41.3407C116.764 41.0178 116.811 40.5542 116.905 39.9501C116.999 39.3459 117.051 38.8876 117.061 38.5751C117.077 38.2626 117.085 37.5959 117.085 36.5751C117.085 36.3042 117.001 35.9917 116.835 35.6376C116.668 35.2834 116.405 34.7964 116.046 34.1766C115.686 33.5568 115.392 33.01 115.163 32.536L114.928 32.4032C114.803 32.6324 114.582 32.7469 114.264 32.7469L113.608 32.7704C113.16 32.7704 112.824 32.661 112.6 32.4423L112.436 32.5985C112.452 32.7912 112.46 33.2027 112.46 33.8329L112.452 35.7469C112.452 36.3199 112.462 36.7417 112.483 37.0126L112.632 38.161C112.632 38.3746 112.559 38.4813 112.413 38.4813C112.267 38.4813 112.194 38.3824 112.194 38.1844L112.319 37.2157C112.319 36.9813 112.249 36.7938 112.108 36.6532C111.973 36.5178 111.793 36.4501 111.569 36.4501C111.35 36.4501 111.155 36.5464 110.983 36.7391C110.816 36.9371 110.733 37.1923 110.733 37.5048C110.733 37.8173 110.79 38.2391 110.905 38.7704C111.02 39.3068 111.077 39.6923 111.077 39.9266C111.077 40.4162 110.902 40.661 110.553 40.661C110.205 40.661 110.03 40.4214 110.03 39.9423C110.03 39.7183 110.08 39.3277 110.178 38.7704C110.283 38.2131 110.335 37.7704 110.335 37.4423C110.335 37.1141 110.259 36.8433 110.108 36.6298C109.957 36.4214 109.785 36.3173 109.593 36.3173C109.4 36.3173 109.236 36.3824 109.1 36.5126C108.965 36.648 108.897 36.8147 108.897 37.0126L109.108 38.8641C109.108 39.1818 108.991 39.3407 108.757 39.3407C108.522 39.3407 108.405 39.1792 108.405 38.8563C108.405 38.6688 108.455 38.3407 108.553 37.8719C108.652 37.4084 108.699 37.0464 108.694 36.786C108.689 36.5256 108.686 33.1558 108.686 26.6766C108.686 26.3537 108.587 26.0959 108.389 25.9032L108.546 25.7469C108.749 25.9449 109.007 26.0438 109.319 26.0438H116.319C117.413 26.0438 118.147 26.0777 118.522 26.1454C118.902 26.2079 119.233 26.2756 119.514 26.3485C119.801 26.4214 120.04 26.5126 120.233 26.6219C120.431 26.7261 120.629 26.8589 120.827 27.0204C121.03 27.1766 121.191 27.3563 121.311 27.5594C121.587 28.023 121.725 28.5152 121.725 29.036C121.725 29.5568 121.684 29.9839 121.6 30.3173C121.522 30.6454 121.389 30.9553 121.202 31.2469C120.796 31.8772 120.082 32.1923 119.061 32.1923L118.999 32.3719C119.327 32.5022 119.546 32.6818 119.655 32.911C120.113 33.911 120.452 34.5464 120.671 34.8173C120.889 35.0829 121.093 35.2964 121.28 35.4579C121.468 35.6193 121.736 35.7834 122.085 35.9501C122.434 36.1167 122.645 36.2261 122.718 36.2782C122.79 36.3251 122.827 36.3641 122.827 36.3954C122.827 36.9162 122.897 37.5855 123.038 38.4032C123.178 39.2209 123.249 39.7469 123.249 39.9813C123.249 40.2157 123.238 40.385 123.218 40.4891C123.202 40.5933 123.163 40.6949 123.1 40.7938C123.038 40.898 122.947 40.9501 122.827 40.9501C122.707 40.9501 122.616 40.8641 122.553 40.6923C122.496 40.5204 122.468 40.3094 122.468 40.0594C122.468 39.8094 122.501 39.3615 122.569 38.7157C122.637 38.0751 122.671 37.5907 122.671 37.2626C122.671 36.6115 122.46 36.286 122.038 36.286C121.83 36.286 121.673 36.3225 121.569 36.3954C121.47 36.4683 121.421 36.6167 121.421 36.8407C121.421 37.0699 121.468 37.4318 121.561 37.9266C121.655 38.4214 121.702 38.7938 121.702 39.0438C121.702 39.299 121.606 39.4266 121.413 39.4266C121.22 39.4266 121.124 39.299 121.124 39.0438ZM115.921 28.6376L114.077 28.6923C113.322 28.6923 112.83 28.5803 112.6 28.3563L112.436 28.5048C112.645 28.7079 112.749 28.9683 112.749 29.286V29.8094C112.749 30.1219 112.645 30.3824 112.436 30.5907L112.6 30.7469C112.824 30.5178 113.288 30.4032 113.991 30.4032L115.968 30.4735C116.494 30.4735 116.9 30.4058 117.186 30.2704C117.478 30.1298 117.624 29.8746 117.624 29.5048C117.624 29.2704 117.543 29.0881 117.382 28.9579C117.22 28.8225 117.025 28.7365 116.796 28.7001C116.566 28.6584 116.275 28.6376 115.921 28.6376Z" fill="#EE6400"/>
</svg>
